<svg width="209" height="58" viewBox="0 0 209 58" fill="none" xmlns="http://www.w3.org/2000/svg">
<path d="M71.1675 39.6112C71.996 39.6112 72.6675 38.9396 72.6675 38.1112V30.6038H81.7846C82.613 30.6038 83.2846 29.9323 83.2846 29.1038V28.151C83.2846 27.3225 82.613 26.651 81.7846 26.651H72.6675V21.9529H82.0146C82.8431 21.9529 83.5146 21.2813 83.5146 20.4529V19.5C83.5146 18.6716 82.8431 18 82.0146 18H69.5C68.6716 18 68 18.6716 68 19.5V38.1112C68 38.9396 68.6716 39.6112 69.5 39.6112H71.1675Z" fill="black"/>
<path d="M85.332 31.7703C85.332 36.7923 88.9806 40 93.8125 40C95.787 40 97.7615 39.5427 99.2969 38.6115C99.941 38.2209 100.033 37.3659 99.6036 36.7467L99.0457 35.9414C98.7659 35.5375 98.1884 35.4804 97.7711 35.7397C96.7622 36.3667 95.4361 36.7275 94.2726 36.7275C91.5773 36.7275 89.9667 35.0751 89.7037 33.0987H100.597C101.098 33.0987 101.504 32.6925 101.504 32.1915V32.1915C101.504 27.0722 98.2828 23.5729 93.5495 23.5729C88.7176 23.5729 85.332 27.2342 85.332 31.7703ZM93.5495 26.8454C96.3106 26.8454 97.3624 28.8218 97.461 30.3122H89.638C89.8352 28.757 90.9528 26.8454 93.5495 26.8454Z" fill="black"/>
<path d="M103.172 31.7703C103.172 36.7923 106.82 40 111.652 40C113.627 40 115.601 39.5427 117.137 38.6115C117.781 38.2209 117.872 37.3659 117.443 36.7467L116.885 35.9414C116.606 35.5375 116.028 35.4804 115.611 35.7397C114.602 36.3667 113.276 36.7275 112.112 36.7275C109.417 36.7275 107.806 35.0751 107.543 33.0987H118.437C118.938 33.0987 119.344 32.6925 119.344 32.1915V32.1915C119.344 27.0722 116.122 23.5729 111.389 23.5729C106.557 23.5729 103.172 27.2342 103.172 31.7703ZM111.389 26.8454C114.15 26.8454 115.202 28.8218 115.301 30.3122H107.478C107.675 28.757 108.792 26.8454 111.389 26.8454Z" fill="black"/>
<path d="M135.651 39.6112C136.479 39.6112 137.151 38.9396 137.151 38.1112V19.5C137.151 18.6716 136.479 18 135.651 18H134.443C133.615 18 132.943 18.6716 132.943 19.5V25.9705C131.694 24.3829 129.919 23.5729 128.046 23.5729C124.003 23.5729 121.011 26.6834 121.011 31.8027C121.011 37.0191 124.035 40 128.046 40C129.952 40 131.694 39.1576 132.943 37.6348V38.1112C132.943 38.9396 133.615 39.6112 134.443 39.6112H135.651ZM132.943 34.5567C132.22 35.5935 130.741 36.3387 129.327 36.3387C126.961 36.3387 125.317 34.4919 125.317 31.8027C125.317 29.081 126.961 27.2342 129.327 27.2342C130.741 27.2342 132.22 27.9794 132.943 29.0162V34.5567Z" fill="black"/>
<path d="M143.636 39.6112C144.464 39.6112 145.136 38.9396 145.136 38.1112V37.6348C146.385 39.1576 148.127 40 150.034 40C154.044 40 157.068 37.0191 157.068 31.8027C157.068 26.6834 154.077 23.5729 150.034 23.5729C148.16 23.5729 146.385 24.3829 145.136 25.9705V19.5C145.136 18.6716 144.464 18 143.636 18H142.461C141.633 18 140.961 18.6716 140.961 19.5V38.1112C140.961 38.9396 141.633 39.6112 142.461 39.6112H143.636ZM145.136 29.0486C145.826 28.0118 147.371 27.2342 148.719 27.2342C151.151 27.2342 152.762 29.081 152.762 31.8027C152.762 34.5243 151.151 36.3387 148.719 36.3387C147.371 36.3387 145.826 35.5935 145.136 34.5891V29.0486Z" fill="black"/>
<path d="M172.099 40C172.928 40 173.599 39.3284 173.599 38.5V29.5022C173.685 24.9297 170.279 23.5729 166.664 23.5729C164.569 23.5729 162.474 24.1197 160.709 25.2897C160.112 25.6855 159.985 26.4833 160.341 27.1049L160.809 27.9228C161.064 28.3673 161.664 28.4581 162.084 28.1643C163.247 27.3498 164.55 26.9426 165.941 26.9426C168.044 26.9426 169.425 27.9794 169.425 29.567V31.7378C168.373 30.4742 166.499 29.8262 164.396 29.8262C161.865 29.8262 158.874 31.1546 158.874 34.8159C158.874 38.3152 161.865 40 164.396 40C166.466 40 168.34 39.2548 169.425 37.9912V38.5C169.425 39.3284 170.096 40 170.925 40H172.099ZM169.425 35.8527C168.735 36.7599 167.42 37.2135 166.072 37.2135C164.429 37.2135 163.081 36.3711 163.081 34.9131C163.081 33.4227 164.429 32.5479 166.072 32.5479C167.42 32.5479 168.735 33.0015 169.425 33.9087V35.8527Z" fill="black"/>
<path d="M176.392 31.7703C176.392 36.5979 179.909 40 184.807 40C187.303 40 189.044 39.1805 190.195 38.1409C190.76 37.6304 190.661 36.7612 190.099 36.2474L189.017 35.2571C188.665 34.9353 188.115 34.9986 187.76 35.317C187.044 35.9595 186.111 36.3387 185.004 36.3387C182.473 36.3387 180.698 34.4919 180.698 31.7703C180.698 29.0486 182.473 27.2342 185.004 27.2342C186.109 27.2342 187.042 27.5937 187.758 28.2404C188.115 28.5633 188.671 28.6318 189.026 28.3069L190.099 27.3255C190.661 26.8117 190.76 25.9425 190.195 25.432C189.044 24.3924 187.303 23.5729 184.807 23.5729C179.909 23.5729 176.392 26.975 176.392 31.7703Z" fill="black"/>
<path d="M207.994 39.6112C208.407 39.6112 208.642 39.1387 208.393 38.8094L202.525 31.0574L208.067 24.793C208.353 24.4703 208.124 23.9617 207.693 23.9617H204.591C204.009 23.9617 203.457 24.2146 203.077 24.6546L197.66 30.9278V19.5C197.66 18.6716 196.988 18 196.16 18H194.985C194.157 18 193.485 18.6716 193.485 19.5V38.1112C193.485 38.9396 194.157 39.6112 194.985 39.6112H196.16C196.988 39.6112 197.66 38.9396 197.66 38.1112V35.5935L199.566 33.5847L203.177 38.7561C203.551 39.2919 204.163 39.6112 204.817 39.6112H207.994Z" fill="black"/>
<g clip-path="url(#clip0)">
<path fill-rule="evenodd" clip-rule="evenodd" d="M53.25 27.2862V33.8333C53.25 35.7783 52.4774 37.6435 51.1021 39.0188C49.7269 40.3941 47.8616 41.1667 45.9167 41.1667H34.8689L23.5178 52.5178C22.8028 53.2328 21.7275 53.4467 20.7933 53.0597C19.8591 52.6727 19.25 51.7612 19.25 50.75V41.1667H12.0833C10.1384 41.1667 8.27315 40.3941 6.89788 39.0188C5.52262 37.6435 4.75 35.7783 4.75 33.8333V14.5C4.75 12.5551 5.52262 10.6898 6.89788 9.31455C8.27315 7.93929 10.1384 7.16667 12.0833 7.16667L29.0454 7.16667C28.1855 8.69535 27.5694 10.3796 27.2501 12.1667H12.0833C11.4645 12.1667 10.871 12.4125 10.4334 12.8501C9.99583 13.2877 9.75 13.8812 9.75 14.5V33.8333C9.75 34.4522 9.99583 35.0457 10.4334 35.4833C10.871 35.9208 11.4645 36.1667 12.0833 36.1667H21.75C23.1307 36.1667 24.25 37.286 24.25 38.6667V44.7145L32.0656 36.8989C32.5344 36.4301 33.1703 36.1667 33.8333 36.1667H45.9167C46.5355 36.1667 47.129 35.9208 47.5666 35.4833C48.0042 35.0457 48.25 34.4522 48.25 33.8333V30.1188C50.093 29.4788 51.7829 28.5114 53.25 27.2862Z" fill="#1683FC"/>
<path fill-rule="evenodd" clip-rule="evenodd" d="M39.6354 27.557C42.9657 28.4494 46.5141 27.9822 49.5 26.2583C52.4859 24.5344 54.6647 21.695 55.557 18.3647C56.4494 15.0343 55.9822 11.4859 54.2583 8.50001C52.5344 5.51411 49.695 3.33533 46.3647 2.44297C43.0343 1.55061 39.4859 2.01777 36.5 3.74168C33.5141 5.46558 31.3353 8.30503 30.443 11.6354C29.5506 14.9657 30.0178 18.5141 31.7417 21.5C33.4656 24.4859 36.305 26.6647 39.6354 27.557V27.557ZM38.7117 12.1686C39.128 12.2802 39.5715 12.2218 39.9448 12.0063C40.318 11.7908 40.5904 11.4359 40.7019 11.0196C40.8135 10.6033 40.7551 10.1597 40.5396 9.78651C40.3241 9.41327 39.9692 9.14092 39.5529 9.02938C39.1366 8.91783 38.693 8.97623 38.3198 9.19171C37.9465 9.4072 37.6742 9.76213 37.5626 10.1784C37.4511 10.5947 37.5095 11.0383 37.725 11.4115C37.9405 11.7847 38.2954 12.0571 38.7117 12.1686ZM50.1197 13.5431C50.0081 13.9594 49.7358 14.3143 49.3626 14.5298C48.9893 14.7453 48.5458 14.8037 48.1295 14.6921C47.7132 14.5806 47.3583 14.3082 47.1428 13.935C46.9273 13.5618 46.8689 13.1182 46.9804 12.7019C47.092 12.2856 47.3643 11.9307 47.7376 11.7152C48.1108 11.4997 48.5543 11.4413 48.9706 11.5529C49.3869 11.6644 49.7419 11.9368 49.9573 12.31C50.1728 12.6832 50.2312 13.1268 50.1197 13.5431ZM47.0635 22.0358C47.2483 21.929 47.4102 21.7869 47.5401 21.6175C47.67 21.4481 47.7652 21.2548 47.8204 21.0486C47.8756 20.8425 47.8896 20.6274 47.8616 20.4158C47.8337 20.2042 47.7644 20.0002 47.6576 19.8154C47.5508 19.6306 47.4087 19.4686 47.2393 19.3387C47.0699 19.2088 46.8766 19.1136 46.6704 19.0584C46.4642 19.0033 46.2492 18.9892 46.0376 19.0172C45.826 19.0451 45.6219 19.1145 45.4371 19.2212C44.3176 19.8674 42.9872 20.0425 41.7385 19.7079C40.4899 19.3733 39.4253 18.5565 38.7788 17.4371C38.5634 17.0638 38.2085 16.7912 37.7921 16.6795C37.3758 16.5678 36.9321 16.626 36.5587 16.8414C36.1853 17.0568 35.9128 17.4117 35.8011 17.8281C35.6894 18.2444 35.7476 18.6881 35.963 19.0615C36.4965 19.9857 37.2068 20.7959 38.0534 21.4456C38.9 22.0953 39.8663 22.5718 40.8971 22.848C41.9279 23.1243 43.0031 23.1947 44.0611 23.0553C45.1191 22.916 46.1393 22.5695 47.0635 22.0358V22.0358Z" fill="#1683FC"/>
</g>
<defs>
<clipPath id="clip0">
<rect width="58" height="58" fill="white"/>
</clipPath>
</defs>
</svg>
