<svg width="206" height="58" viewBox="0 0 206 58" fill="none" xmlns="http://www.w3.org/2000/svg">
<path d="M72.656 38V29.104H82.992V25.2H72.656V20.56H83.216V16.656H68.112V38H72.656ZM84.9853 30.256C84.9853 35.216 88.5373 38.384 93.2413 38.384C95.6413 38.384 98.0413 37.68 99.6093 36.24L97.8173 33.616C96.8253 34.576 95.1293 35.152 93.6893 35.152C91.0653 35.152 89.4973 33.52 89.2413 31.568H100.729V30.672C100.729 25.616 97.5933 22.16 92.9853 22.16C88.2813 22.16 84.9853 25.776 84.9853 30.256ZM92.9853 25.392C95.6733 25.392 96.6973 27.344 96.7933 28.816H89.1773C89.3693 27.28 90.4573 25.392 92.9853 25.392ZM102.353 30.256C102.353 35.216 105.905 38.384 110.609 38.384C113.009 38.384 115.409 37.68 116.977 36.24L115.185 33.616C114.193 34.576 112.497 35.152 111.057 35.152C108.433 35.152 106.865 33.52 106.609 31.568H118.097V30.672C118.097 25.616 114.961 22.16 110.353 22.16C105.649 22.16 102.353 25.776 102.353 30.256ZM110.353 25.392C113.041 25.392 114.065 27.344 114.161 28.816H106.545C106.737 27.28 107.825 25.392 110.353 25.392ZM135.432 38V16.656H131.336V24.528C130.12 22.96 128.392 22.16 126.568 22.16C122.632 22.16 119.72 25.232 119.72 30.288C119.72 35.44 122.664 38.384 126.568 38.384C128.424 38.384 130.12 37.552 131.336 36.048V38H135.432ZM131.336 33.008C130.632 34.032 129.192 34.768 127.816 34.768C125.512 34.768 123.912 32.944 123.912 30.288C123.912 27.6 125.512 25.776 127.816 25.776C129.192 25.776 130.632 26.512 131.336 27.536V33.008ZM143.206 38V36.048C144.422 37.552 146.118 38.384 147.974 38.384C151.878 38.384 154.822 35.44 154.822 30.288C154.822 25.232 151.91 22.16 147.974 22.16C146.15 22.16 144.422 22.96 143.206 24.528V16.656H139.142V38H143.206ZM143.206 27.568C143.878 26.544 145.382 25.776 146.694 25.776C149.062 25.776 150.63 27.6 150.63 30.288C150.63 32.976 149.062 34.768 146.694 34.768C145.382 34.768 143.878 34.032 143.206 33.04V27.568ZM170.916 38V28.016C170.916 23.568 167.684 22.16 164.164 22.16C161.732 22.16 159.3 22.928 157.412 24.592L158.948 27.312C160.26 26.096 161.796 25.488 163.46 25.488C165.508 25.488 166.852 26.512 166.852 28.08V30.224C165.828 28.976 164.004 28.336 161.956 28.336C159.492 28.336 156.58 29.648 156.58 33.264C156.58 36.72 159.492 38.384 161.956 38.384C163.972 38.384 165.796 37.648 166.852 36.4V38H170.916ZM166.852 34.288C166.18 35.184 164.9 35.632 163.588 35.632C161.988 35.632 160.676 34.8 160.676 33.36C160.676 31.888 161.988 31.024 163.588 31.024C164.9 31.024 166.18 31.472 166.852 32.368V34.288ZM173.635 30.256C173.635 35.024 177.059 38.384 181.827 38.384C184.995 38.384 186.915 37.008 187.939 35.568L185.283 33.104C184.547 34.128 183.427 34.768 182.019 34.768C179.555 34.768 177.827 32.944 177.827 30.256C177.827 27.568 179.555 25.776 182.019 25.776C183.427 25.776 184.547 26.384 185.283 27.44L187.939 24.976C186.915 23.536 184.995 22.16 181.827 22.16C177.059 22.16 173.635 25.52 173.635 30.256ZM205.38 38L199.076 29.552L205.188 22.544H200.196L194.34 29.424V16.656H190.276V38H194.34V34.032L196.196 32.048L200.292 38H205.38Z" fill="black"/>
<g clip-path="url(#clip0)">
<path fill-rule="evenodd" clip-rule="evenodd" d="M53.25 27.2862V33.8333C53.25 35.7783 52.4774 37.6435 51.1021 39.0188C49.7269 40.3941 47.8616 41.1667 45.9167 41.1667H34.8689L23.5178 52.5178C22.8028 53.2328 21.7275 53.4467 20.7933 53.0597C19.8591 52.6727 19.25 51.7612 19.25 50.75V41.1667H12.0833C10.1384 41.1667 8.27315 40.3941 6.89788 39.0188C5.52262 37.6435 4.75 35.7783 4.75 33.8333V14.5C4.75 12.5551 5.52262 10.6898 6.89788 9.31455C8.27315 7.93929 10.1384 7.16667 12.0833 7.16667L29.0454 7.16667C28.1855 8.69535 27.5694 10.3796 27.2501 12.1667H12.0833C11.4645 12.1667 10.871 12.4125 10.4334 12.8501C9.99583 13.2877 9.75 13.8812 9.75 14.5V33.8333C9.75 34.4522 9.99583 35.0457 10.4334 35.4833C10.871 35.9208 11.4645 36.1667 12.0833 36.1667H21.75C23.1307 36.1667 24.25 37.286 24.25 38.6667V44.7145L32.0656 36.8989C32.5344 36.4301 33.1703 36.1667 33.8333 36.1667H45.9167C46.5355 36.1667 47.129 35.9208 47.5666 35.4833C48.0042 35.0457 48.25 34.4522 48.25 33.8333V30.1188C50.093 29.4788 51.7829 28.5114 53.25 27.2862Z" fill="#1683FC"/>
<path fill-rule="evenodd" clip-rule="evenodd" d="M39.6354 27.557C42.9657 28.4494 46.5141 27.9822 49.5 26.2583C52.4859 24.5344 54.6647 21.695 55.557 18.3646C56.4494 15.0343 55.9822 11.4859 54.2583 8.5C52.5344 5.5141 49.695 3.33532 46.3647 2.44296C43.0343 1.5506 39.4859 2.01776 36.5 3.74167C33.5141 5.46558 31.3353 8.30502 30.443 11.6354C29.5506 14.9657 30.0178 18.5141 31.7417 21.5C33.4656 24.4859 36.305 26.6647 39.6354 27.557ZM38.7117 12.1686C39.128 12.2802 39.5715 12.2218 39.9448 12.0063C40.318 11.7908 40.5904 11.4359 40.7019 11.0196C40.8135 10.6033 40.7551 10.1597 40.5396 9.7865C40.3241 9.41326 39.9692 9.14091 39.5529 9.02937C39.1366 8.91782 38.693 8.97622 38.3198 9.19171C37.9465 9.40719 37.6742 9.76212 37.5626 10.1784C37.4511 10.5947 37.5095 11.0383 37.725 11.4115C37.9405 11.7847 38.2954 12.0571 38.7117 12.1686ZM50.1197 13.5431C50.0081 13.9594 49.7358 14.3143 49.3626 14.5298C48.9893 14.7453 48.5458 14.8037 48.1295 14.6921C47.7132 14.5806 47.3583 14.3082 47.1428 13.935C46.9273 13.5617 46.8689 13.1182 46.9804 12.7019C47.092 12.2856 47.3643 11.9307 47.7376 11.7152C48.1108 11.4997 48.5543 11.4413 48.9706 11.5529C49.3869 11.6644 49.7419 11.9367 49.9573 12.31C50.1728 12.6832 50.2312 13.1268 50.1197 13.5431ZM47.0635 22.0358C47.2483 21.929 47.4102 21.7869 47.5401 21.6175C47.67 21.4481 47.7652 21.2548 47.8204 21.0486C47.8756 20.8424 47.8896 20.6274 47.8616 20.4158C47.8337 20.2042 47.7644 20.0002 47.6576 19.8154C47.5508 19.6306 47.4087 19.4686 47.2393 19.3387C47.0699 19.2088 46.8766 19.1136 46.6704 19.0584C46.4642 19.0033 46.2492 18.9892 46.0376 19.0172C45.826 19.0451 45.6219 19.1145 45.4371 19.2212C44.3176 19.8674 42.9872 20.0425 41.7385 19.7079C40.4899 19.3733 39.4253 18.5565 38.7788 17.4371C38.5634 17.0637 38.2085 16.7912 37.7921 16.6795C37.3758 16.5678 36.9321 16.626 36.5587 16.8414C36.1853 17.0568 35.9128 17.4117 35.8011 17.8281C35.6894 18.2444 35.7476 18.6881 35.963 19.0615C36.4965 19.9857 37.2068 20.7959 38.0534 21.4456C38.9 22.0953 39.8663 22.5718 40.8971 22.848C41.9279 23.1242 43.0031 23.1947 44.0611 23.0553C45.1191 22.9159 46.1393 22.5695 47.0635 22.0358Z" fill="#1683FC"/>
</g>
<defs>
<clipPath id="clip0">
<rect width="58" height="58" fill="white"/>
</clipPath>
</defs>
</svg>
