<svg width="246" height="58" viewBox="0 0 246 58" fill="none" xmlns="http://www.w3.org/2000/svg">
<path d="M68.0227 40H72.9432V30.3864H82.4091V26.3295H72.9432V20.7841H83.4318V16.7273H68.0227V40ZM86.7415 40H102.469V35.9432H91.6619V30.3864H101.616V26.3295H91.6619V20.7841H102.423V16.7273H86.7415V40ZM106.335 40H122.062V35.9432H111.256V30.3864H121.21V26.3295H111.256V20.7841H122.017V16.7273H106.335V40ZM134.179 40C141.27 40 145.565 35.6136 145.565 28.3409C145.565 21.0909 141.27 16.7273 134.247 16.7273H125.929V40H134.179ZM130.849 35.7841V20.9432H133.986C138.349 20.9432 140.656 23.1705 140.656 28.3409C140.656 33.5341 138.349 35.7841 133.974 35.7841H130.849ZM149.21 40H159.153C164.381 40 167.165 37.2727 167.165 33.5682C167.165 30.125 164.699 28.0455 162.051 27.9205V27.6932C164.472 27.1477 166.256 25.4318 166.256 22.6932C166.256 19.2045 163.665 16.7273 158.528 16.7273H149.21V40ZM154.131 35.9773V29.7955H158.256C160.619 29.7955 162.085 31.1591 162.085 33.0795C162.085 34.8295 160.892 35.9773 158.142 35.9773H154.131ZM154.131 26.4659V20.7045H157.869C160.051 20.7045 161.29 21.8295 161.29 23.5114C161.29 25.3523 159.79 26.4659 157.778 26.4659H154.131ZM174.378 40L176.105 34.6932H184.503L186.23 40H191.503L183.48 16.7273H177.139L169.105 40H174.378ZM177.355 30.8523L180.219 22.0455H180.401L183.264 30.8523H177.355ZM213.744 24.875C213.097 19.5 209.028 16.4091 203.642 16.4091C197.494 16.4091 192.801 20.75 192.801 28.3636C192.801 35.9545 197.415 40.3182 203.642 40.3182C209.608 40.3182 213.21 36.3523 213.744 32.0682L208.767 32.0455C208.301 34.5341 206.347 35.9659 203.722 35.9659C200.188 35.9659 197.79 33.3409 197.79 28.3636C197.79 23.5227 200.153 20.7614 203.756 20.7614C206.449 20.7614 208.392 22.3182 208.767 24.875H213.744ZM217.273 40H222.193V33.3864L224.614 30.4318L230.989 40H236.875L228.136 27.1477L236.773 16.7273H230.875L222.5 26.9886H222.193V16.7273H217.273V40Z" fill="black"/>
<g clip-path="url(#clip0)">
<path fill-rule="evenodd" clip-rule="evenodd" d="M53.25 27.2862V33.8333C53.25 35.7783 52.4774 37.6435 51.1021 39.0188C49.7269 40.3941 47.8616 41.1667 45.9167 41.1667H34.8689L23.5178 52.5178C22.8028 53.2328 21.7275 53.4467 20.7933 53.0597C19.8591 52.6727 19.25 51.7612 19.25 50.75V41.1667H12.0833C10.1384 41.1667 8.27315 40.3941 6.89788 39.0188C5.52262 37.6435 4.75 35.7783 4.75 33.8333V14.5C4.75 12.5551 5.52262 10.6898 6.89788 9.31455C8.27315 7.93929 10.1384 7.16667 12.0833 7.16667L29.0454 7.16667C28.1855 8.69535 27.5694 10.3796 27.2501 12.1667H12.0833C11.4645 12.1667 10.871 12.4125 10.4334 12.8501C9.99583 13.2877 9.75 13.8812 9.75 14.5V33.8333C9.75 34.4522 9.99583 35.0457 10.4334 35.4833C10.871 35.9208 11.4645 36.1667 12.0833 36.1667H21.75C23.1307 36.1667 24.25 37.286 24.25 38.6667V44.7145L32.0656 36.8989C32.5344 36.4301 33.1703 36.1667 33.8333 36.1667H45.9167C46.5355 36.1667 47.129 35.9208 47.5666 35.4833C48.0042 35.0457 48.25 34.4522 48.25 33.8333V30.1188C50.093 29.4788 51.7829 28.5114 53.25 27.2862Z" fill="#1683FC"/>
<path fill-rule="evenodd" clip-rule="evenodd" d="M39.6354 27.557C42.9657 28.4494 46.5141 27.9822 49.5 26.2583C52.4859 24.5344 54.6647 21.695 55.557 18.3646C56.4494 15.0343 55.9822 11.4859 54.2583 8.5C52.5344 5.5141 49.695 3.33532 46.3647 2.44296C43.0343 1.5506 39.4859 2.01776 36.5 3.74167C33.5141 5.46558 31.3353 8.30502 30.443 11.6354C29.5506 14.9657 30.0178 18.5141 31.7417 21.5C33.4656 24.4859 36.305 26.6647 39.6354 27.557V27.557ZM38.7117 12.1686C39.128 12.2802 39.5715 12.2218 39.9448 12.0063C40.318 11.7908 40.5904 11.4359 40.7019 11.0196C40.8135 10.6033 40.7551 10.1597 40.5396 9.7865C40.3241 9.41326 39.9692 9.14091 39.5529 9.02937C39.1366 8.91782 38.693 8.97622 38.3198 9.19171C37.9465 9.40719 37.6742 9.76212 37.5626 10.1784C37.4511 10.5947 37.5095 11.0383 37.725 11.4115C37.9405 11.7847 38.2954 12.0571 38.7117 12.1686ZM50.1197 13.5431C50.0081 13.9594 49.7358 14.3143 49.3626 14.5298C48.9893 14.7453 48.5458 14.8037 48.1295 14.6921C47.7132 14.5806 47.3583 14.3082 47.1428 13.935C46.9273 13.5617 46.8689 13.1182 46.9804 12.7019C47.092 12.2856 47.3643 11.9307 47.7376 11.7152C48.1108 11.4997 48.5543 11.4413 48.9706 11.5529C49.3869 11.6644 49.7419 11.9367 49.9573 12.31C50.1728 12.6832 50.2312 13.1268 50.1197 13.5431ZM47.0635 22.0358C47.2483 21.929 47.4102 21.7869 47.5401 21.6175C47.67 21.4481 47.7652 21.2548 47.8204 21.0486C47.8756 20.8424 47.8896 20.6274 47.8616 20.4158C47.8337 20.2042 47.7644 20.0002 47.6576 19.8154C47.5508 19.6306 47.4087 19.4686 47.2393 19.3387C47.0699 19.2088 46.8766 19.1136 46.6704 19.0584C46.4642 19.0033 46.2492 18.9892 46.0376 19.0172C45.826 19.0451 45.6219 19.1144 45.4371 19.2212C44.3176 19.8674 42.9872 20.0425 41.7385 19.7079C40.4899 19.3733 39.4253 18.5565 38.7788 17.4371C38.5634 17.0637 38.2085 16.7912 37.7921 16.6795C37.3758 16.5678 36.9321 16.626 36.5587 16.8414C36.1853 17.0568 35.9128 17.4117 35.8011 17.8281C35.6894 18.2444 35.7476 18.6881 35.963 19.0615C36.4965 19.9857 37.2068 20.7959 38.0534 21.4456C38.9 22.0953 39.8663 22.5718 40.8971 22.848C41.9279 23.1242 43.0031 23.1947 44.0611 23.0553C45.1191 22.9159 46.1393 22.5695 47.0635 22.0358V22.0358Z" fill="#1683FC"/>
</g>
<defs>
<clipPath id="clip0">
<rect width="58" height="58" fill="white"/>
</clipPath>
</defs>
</svg>
